<svg width="330" height="330" xmlns="http://www.w3.org/2000/svg">
 <!-- Created with Method Draw - http://github.com/duopixel/Method-Draw/ -->
 <defs>
  <filter id="svg_3_blur">
   <feGaussianBlur stdDeviation="0.3"/>
  </filter>
  <filter id="svg_14_blur">
   <feGaussianBlur stdDeviation="0.9"/>
  </filter>
  <filter id="svg_13_blur">
   <feGaussianBlur stdDeviation="0.9"/>
  </filter>
  <filter id="svg_12_blur">
   <feGaussianBlur stdDeviation="1"/>
  </filter>
  <filter id="svg_11_blur">
   <feGaussianBlur stdDeviation="0.9"/>
  </filter>
  <filter id="svg_1_blur">
   <feGaussianBlur stdDeviation="0.8"/>
  </filter>
  <filter id="svg_2_blur">
   <feGaussianBlur stdDeviation="0.8"/>
  </filter>
 </defs>
 <g>
  <title>background</title>
  <rect x="-1" y="-1" width="332" height="332" id="canvas_background" fill="none"/>
  <g id="canvasGrid" display="none">
   <rect id="svg_5" width="100%" height="100%" x="0" y="0" stroke-width="0" fill="url(#gridpattern)"/>
  </g>
 </g>
 <g>
  <title>Layer 1</title>
  <ellipse stroke="#000" fill="#bf0000" stroke-width="1.5" cx="164.500002" cy="165.953127" id="svg_1" rx="162.999998" ry="163.500002" filter="url(#svg_1_blur)"/>
  <ellipse fill="#2D6862" stroke="#000" stroke-width="1.5" cx="139" cy="160.953125" id="svg_2" rx="121.5" ry="119.5" filter="url(#svg_2_blur)"/>
  <text fill="#ff0000" stroke-opacity="null" x="211.485241" y="190.304778" id="svg_3" font-size="22" font-family="'Trebuchet MS', Gadget, sans-serif" text-anchor="start" xml:space="preserve" transform="matrix(13.58218153352118,0,0,8.191265806963482,-2836.058966092278,-1335.2777692676198) " stroke="#000" font-weight="bold" font-style="normal" filter="url(#svg_3_blur)">R</text>
  <path fill="#84D3DB" stroke="#000" stroke-width="1.5" stroke-opacity="null" opacity="0.5" d="m317.5,352.45313" id="svg_4"/>
  <path fill="#ffff00" stroke-width="1.5" stroke-opacity="null" d="m253.30998,87.13304l21.49999,-27.434l21.49998,27.434l-10.74999,0l0,27.56599l-21.49999,0l0,-27.56599l-10.74999,0z" id="svg_11" stroke="#000" filter="url(#svg_11_blur)"/>
  <path fill="#ffff00" stroke="#000" stroke-width="1.5" stroke-opacity="null" d="m274.33995,171.71046l21.00002,-26.43641l21.00001,26.43641l-10.50001,0l0,26.56361l-21.00001,0l0,-26.56361l-10.50001,0z" id="svg_12" transform="rotate(90 295.33996582031256,171.7740631103516) " filter="url(#svg_12_blur)"/>
  <path fill="#ffff00" stroke-width="1.5" stroke-opacity="null" d="m241.40984,250.38772l21.49984,-28.4316l21.49984,28.4316l-10.74992,0l0,28.5684l-21.49984,0l0,-28.5684l-10.74992,0z" id="svg_13" transform="rotate(180 262.90966796875,250.45611572265628) " filter="url(#svg_13_blur)" stroke="#000"/>
  <path fill="#ffff00" stroke-width="1.5" stroke-opacity="null" d="m175.40619,294.58672l20.00345,-29.42919l20.00346,29.42919l-10.00173,0l0,29.5708l-20.00346,0l0,-29.5708l-10.00172,0z" id="svg_14" transform="rotate(-90.19621276855469 195.40963745117188,294.65753173828125) " stroke="#000" filter="url(#svg_14_blur)"/>
 </g>
</svg>